Coordinates
version=1
nRows=17
nColumns=63
inDegrees=yes

Units are S.I. units (second, meters, Newtons, ...)
If the header above contains a line with 'inDegrees', this indicates whether rotational values are in degrees (yes) or radians (no).

endheader
time	pelvis_tilt	pelvis_list	pelvis_rotation	pelvis_tx	pelvis_ty	pelvis_tz	hip_flexion_r	hip_adduction_r	hip_rotation_r	knee_angle_r	knee_angle_r_beta	ankle_angle_r	subtalar_angle_r	mtp_angle_r	hip_flexion_l	hip_adduction_l	hip_rotation_l	knee_angle_l	knee_angle_l_beta	ankle_angle_l	subtalar_angle_l	mtp_angle_l	L5_S1_Flex_Ext	L5_S1_Lat_Bending	L5_S1_axial_rotation	L4_L5_Flex_Ext	L4_L5_Lat_Bending	L4_L5_axial_rotation	L3_L4_Flex_Ext	L3_L4_Lat_Bending	L3_L4_axial_rotation	L2_L3_Flex_Ext	L2_L3_Lat_Bending	L2_L3_axial_rotation	L1_L2_Flex_Ext	L1_L2_Lat_Bending	L1_L2_axial_rotation	L1_T12_Flex_Ext	L1_T12_Lat_Bending	L1_T12_axial_rotation	Abs_r3	Abs_r2	Abs_r1	Abs_t1	Abs_t2	neck_flexion	neck_bending	neck_rotation	arm_flex_r	arm_add_r	arm_rot_r	elbow_flex_r	pro_sup_r	wrist_flex_r	wrist_dev_r	arm_flex_l	arm_add_l	arm_rot_l	elbow_flex_l	pro_sup_l	wrist_flex_l	wrist_dev_l
3.576271	-9.545874	6.116126	109.380349	0.065286	1.052975	0.500675	-10.353302	-7.526171	-10.894383	13.810170	0.241033	31.413761	-2.719915	0.000000	-11.228631	6.040712	6.169849	6.014620	0.104975	28.724488	8.097950	0.000000	-0.677095	-2.139726	-3.616697	-1.257433	-2.845835	-3.842741	-1.112400	-5.202530	-3.842741	-0.773852	-5.202530	-3.164610	-0.628751	-4.363329	-2.938567	-0.386892	-3.314435	-2.712523	-4.836423	-24.205008	-20.114986	0.000000	0.000000	-8.615805	1.954092	36.570046	68.901207	24.685167	215.206071	0.062889	1.108462	-69.819346	-24.405601	-12.122232	-19.819999	-9.719019	89.745246	81.705795	-8.635364	-0.938044
3.593220	-9.935787	5.898805	109.773856	0.066537	1.053745	0.501690	-10.151094	-7.795757	-10.904066	14.005980	0.244450	31.210463	-3.396750	0.000000	-10.998403	6.311042	6.159518	6.132026	0.107024	28.451107	8.619564	0.000000	-0.673805	-2.196098	-3.631954	-1.251322	-2.920810	-3.858951	-1.106993	-5.339592	-3.858951	-0.770091	-5.339592	-3.177960	-0.625695	-4.478283	-2.950962	-0.385012	-3.401756	-2.723965	-4.812918	-24.842698	-20.199837	0.000000	0.000000	-8.718757	2.503944	36.648644	66.673141	24.895052	218.798066	0.062040	1.130640	-69.823031	-24.427760	-11.861886	-21.268912	-9.013296	88.911466	80.855127	-8.815090	-1.527370
3.610169	-10.337682	5.765996	110.048937	0.067829	1.054368	0.502695	-10.025330	-8.086439	-10.772700	14.211428	0.248036	31.024280	-4.104710	0.000000	-10.904116	6.606692	6.163627	6.164872	0.107597	28.157926	9.026716	0.000000	-0.674131	-2.244436	-3.674226	-1.251929	-2.985099	-3.903865	-1.107530	-5.457121	-3.903865	-0.770465	-5.457121	-3.214948	-0.625998	-4.576853	-2.985309	-0.385199	-3.476631	-2.755670	-4.815253	-25.389504	-20.434943	0.000000	0.000000	-8.712593	2.900368	36.937631	64.811160	25.301857	220.913548	0.060804	1.130485	-69.829241	-24.453900	-11.828007	-22.676387	-8.479860	88.222052	80.074918	-8.955102	-2.150265
3.627119	-10.739047	5.686809	110.214994	0.069157	1.054889	0.503658	-9.940285	-8.395431	-10.545682	14.424323	0.251752	30.875998	-4.778915	0.000000	-10.912519	6.921313	6.223647	6.110839	0.106654	27.826092	9.265013	0.000000	-0.676918	-2.283701	-3.736642	-1.257105	-3.037322	-3.970182	-1.112109	-5.552590	-3.970182	-0.773650	-5.552590	-3.269562	-0.628586	-4.656923	-3.036022	-0.386791	-3.537453	-2.802481	-4.835159	-25.833682	-20.782082	0.000000	0.000000	-8.657848	3.201483	37.426435	63.233764	25.893052	221.649449	0.059269	1.108472	-69.837546	-24.482268	-12.020041	-24.015655	-8.130467	87.695586	79.504669	-9.025267	-2.743624
3.644068	-11.147560	5.625796	110.276480	0.070590	1.055358	0.504571	-9.853357	-8.731389	-10.231730	14.643140	0.255571	30.772461	-5.404433	0.000000	-10.977613	7.262522	6.305348	5.985238	0.104462	27.451858	9.369899	0.000000	-0.680640	-2.315212	-3.809236	-1.264016	-3.079233	-4.047313	-1.118223	-5.629207	-4.047313	-0.777903	-5.629207	-3.333081	-0.632042	-4.721181	-3.095004	-0.388918	-3.586264	-2.856927	-4.861742	-26.190146	-21.185825	0.000000	0.000000	-8.573680	3.415534	38.097043	61.820215	26.684238	221.224913	0.057538	1.068212	-69.847567	-24.511086	-12.400477	-25.297264	-7.893395	87.312871	79.042208	-9.043897	-3.398552
3.661017	-11.569376	5.555719	110.244536	0.072182	1.055820	0.505431	-9.734350	-9.108209	-9.908591	14.871110	0.259550	30.734878	-5.887993	0.000000	-11.057160	7.636005	6.373235	5.816427	0.101516	27.038501	9.383478	0.000000	-0.685862	-2.340201	-3.873865	-1.273715	-3.112468	-4.115982	-1.126803	-5.689965	-4.115982	-0.783872	-5.689965	-3.389632	-0.636892	-4.772138	-3.147515	-0.391902	-3.624972	-2.905399	-4.899045	-26.472823	-21.545275	0.000000	0.000000	-8.477331	3.544891	38.859322	60.443057	27.665499	219.915598	0.055747	1.012293	-69.858821	-24.537055	-12.847932	-26.544259	-7.616336	87.027368	78.674556	-9.037544	-4.118620
3.677966	-12.004121	5.424150	110.167496	0.073945	1.056266	0.506175	-9.556397	-9.521638	-9.594512	15.079819	0.263192	30.731671	-6.274117	0.000000	-11.094509	8.041787	6.457479	5.621199	0.098108	26.578476	9.316713	0.000000	-0.688782	-2.360840	-3.927032	-1.279137	-3.139917	-4.172472	-1.131600	-5.740145	-4.172472	-0.787209	-5.740145	-3.436153	-0.639603	-4.814224	-3.190714	-0.393570	-3.656941	-2.945274	-4.919900	-26.706290	-21.840976	0.000000	0.000000	-8.378990	3.622153	39.723429	58.962165	28.827704	218.111777	0.053991	0.945067	-69.870631	-24.556621	-13.344654	-27.734617	-7.291411	86.871507	78.385844	-8.998558	-4.818483
3.694915	-12.453074	5.212798	110.053631	0.075902	1.056704	0.506752	-9.306401	-9.970541	-9.263902	15.268778	0.266490	30.740628	-6.624716	0.000000	-11.053042	8.470641	6.281748	5.445365	0.095040	26.137486	9.539166	0.000000	-0.689439	-2.379871	-3.945821	-1.280356	-3.165228	-4.192435	-1.132679	-5.786418	-4.192435	-0.787959	-5.786418	-3.452593	-0.640213	-4.853032	-3.205980	-0.393945	-3.686420	-2.959366	-4.924591	-26.921573	-21.945473	0.000000	0.000000	-8.309165	3.648202	40.480098	57.285386	30.088725	216.161346	0.052352	0.869353	-69.882106	-24.567908	-13.713399	-28.890285	-6.692966	86.767339	78.090693	-8.887684	-5.525884
3.711864	-12.900326	4.901428	109.902430	0.077992	1.057097	0.507078	-8.970267	-10.443459	-8.917857	15.426527	0.269244	30.728343	-6.955153	0.000000	-10.915530	8.922168	6.012863	5.284499	0.092232	25.676882	9.805963	0.000000	-0.684700	-2.398336	-3.913021	-1.271557	-3.189787	-4.157585	-1.124894	-5.831315	-4.157585	-0.782544	-5.831315	-3.423893	-0.635813	-4.890688	-3.179330	-0.391238	-3.715023	-2.934766	-4.890747	-27.130461	-21.763049	0.000000	0.000000	-8.291592	3.661397	40.958346	55.331387	31.353746	214.317230	0.050900	0.795884	-69.892170	-24.574226	-13.816742	-29.949800	-5.711226	86.628844	77.847280	-8.582723	-6.310261
3.728814	-13.328974	4.486358	109.721617	0.080141	1.057407	0.507089	-8.552042	-10.922705	-8.537555	15.547048	0.271347	30.671383	-7.312629	0.000000	-10.675069	9.382614	5.651122	5.151364	0.089908	25.207089	10.121385	0.000000	-0.673060	-2.416565	-3.820500	-1.249940	-3.214032	-4.059281	-1.105771	-5.875637	-4.059281	-0.769241	-5.875637	-3.342938	-0.625004	-4.927860	-3.104156	-0.384587	-3.743259	-2.865375	-4.807603	-27.336669	-21.248476	0.000000	0.000000	-8.312885	3.693871	41.056270	53.063113	32.533915	212.794808	0.049702	0.730798	-69.899654	-24.576429	-13.548785	-30.895898	-4.233317	86.394460	77.778398	-8.120270	-7.230134
3.745763	-13.721991	3.976226	109.526873	0.082253	1.057605	0.506747	-8.066859	-11.386270	-8.117227	15.624983	0.272707	30.563728	-7.736761	0.000000	-10.338760	9.834748	5.214607	5.051632	0.088168	24.734524	10.472280	0.000000	-0.653223	-2.433918	-3.671212	-1.213101	-3.237112	-3.900663	-1.073181	-5.917829	-3.900663	-0.746569	-5.917829	-3.212311	-0.606583	-4.963247	-2.982860	-0.373252	-3.770140	-2.753409	-4.665909	-27.532972	-20.418181	0.000000	0.000000	-8.327767	3.780495	40.735266	50.476846	33.563070	211.694270	0.048842	0.679675	-69.903677	-24.576027	-12.846587	-31.726386	-2.192730	86.017755	77.967294	-7.561306	-8.318980
3.762712	-14.072015	3.391946	109.339883	0.084243	1.057666	0.506075	-7.539049	-11.822329	-7.694952	15.663034	0.273372	30.431200	-8.195221	0.000000	-9.923385	10.265362	4.734168	4.990588	0.087102	24.276914	10.858330	0.000000	-0.625077	-2.449982	-3.481208	-1.160830	-3.258477	-3.698784	-1.026938	-5.956887	-3.698784	-0.714400	-5.956887	-3.046057	-0.580446	-4.996004	-2.828482	-0.357169	-3.795023	-2.610906	-4.464860	-27.714692	-19.361435	0.000000	0.000000	-8.280559	3.960335	40.062637	47.618547	34.418782	211.047871	0.048326	0.649998	-69.904678	-24.574692	-11.722526	-32.460816	0.384833	85.506413	78.456189	-6.956730	-9.565201
3.779661	-14.361289	2.782241	109.147944	0.086098	1.057591	0.505149	-7.007130	-12.203612	-7.271339	15.655297	0.273236	30.297632	-8.651471	0.000000	-9.469489	10.646848	4.193011	4.960565	0.086578	23.855837	11.294053	0.000000	-0.591240	-2.461759	-3.266930	-1.097992	-3.274140	-3.471113	-0.971348	-5.985522	-3.471113	-0.675728	-5.985522	-2.858563	-0.549025	-5.020020	-2.654380	-0.337834	-3.813265	-2.450197	-4.223167	-27.847915	-18.169682	0.000000	0.000000	-8.085603	4.183296	39.093972	44.593195	35.117497	210.823472	0.048094	0.646457	-69.904269	-24.574863	-10.221487	-33.145773	3.469524	84.889852	79.256475	-6.462218	-10.980359
3.796610	-14.604313	2.187761	108.963238	0.087752	1.057369	0.504076	-6.500906	-12.542418	-6.893607	15.634389	0.272872	30.210936	-9.048134	0.000000	-9.020403	10.986175	3.683590	4.952973	0.086446	23.481266	11.700422	0.000000	-0.554338	-2.469499	-3.052420	-1.029462	-3.284434	-3.243196	-0.910722	-6.004340	-3.243196	-0.633553	-6.004340	-2.670867	-0.514758	-5.035802	-2.480091	-0.316749	-3.825254	-2.289315	-3.959583	-27.935467	-16.976642	0.000000	0.000000	-7.711487	4.449653	37.970265	41.541492	35.699428	211.014618	0.048033	0.645745	-69.903526	-24.576653	-8.487983	-33.809430	6.842015	84.254308	80.334257	-5.895369	-12.412130
3.813559	-14.796012	1.649613	108.845228	0.089055	1.056986	0.502924	-6.088565	-12.807463	-6.582565	15.562674	0.271620	30.154851	-9.435270	0.000000	-8.617452	11.260431	3.278954	4.960945	0.086585	23.194125	12.078908	0.000000	-0.517933	-2.471047	-2.865818	-0.961854	-3.286493	-3.044931	-0.850913	-6.008104	-3.044931	-0.591946	-6.008104	-2.507591	-0.480953	-5.038960	-2.328477	-0.295947	-3.827652	-2.149363	-3.699547	-27.952982	-15.938819	0.000000	0.000000	-7.146642	4.773796	36.819117	38.618094	36.195100	211.509142	0.048064	0.657100	-69.902670	-24.580298	-6.683626	-34.401925	10.308349	83.694333	81.356789	-5.316466	-13.813112
3.830508	-14.929428	1.198476	108.741174	0.090029	1.056407	0.501731	-5.765627	-13.004530	-6.340605	15.481499	0.270203	30.168566	-9.726115	0.000000	-8.295490	11.467514	2.990659	4.957549	0.086526	22.986872	12.343324	0.000000	-0.483802	-2.464890	-2.702815	-0.898469	-3.278304	-2.871741	-0.794839	-5.993135	-2.871741	-0.552937	-5.993135	-2.364963	-0.449259	-5.026405	-2.196037	-0.276445	-3.818115	-2.027111	-3.455750	-27.883334	-15.032246	0.000000	0.000000	-6.337035	5.119716	35.638746	35.948477	36.580138	212.169976	0.048209	0.671594	-69.901399	-24.585577	-4.894953	-34.897171	13.673426	83.270270	82.353261	-4.420043	-14.888344
3.847458	-14.994350	0.856825	108.652213	0.090568	1.055628	0.500488	-5.563790	-13.120065	-6.165217	15.371479	0.268283	30.238204	-9.916286	0.000000	-8.082593	11.596883	2.861339	4.930085	0.086046	22.873186	12.449374	0.000000	-0.453015	-2.449225	-2.565291	-0.841295	-3.257469	-2.725622	-0.744259	-5.955045	-2.725622	-0.517751	-5.955045	-2.244630	-0.420670	-4.994459	-2.084299	-0.258853	-3.793849	-1.923968	-3.235843	-27.706118	-14.267379	0.000000	0.000000	-5.309629	5.481490	34.436132	33.611290	36.806326	212.861255	0.048459	0.699039	-69.899142	-24.591515	-3.192849	-35.190652	16.780670	82.993734	83.178880	-3.131385	-15.525592
